<svg width="261" height="100" viewBox="0 0 261 100" fill="none" xmlns="http://www.w3.org/2000/svg">
<path d="M42.0723 79.6687C42.0723 79.7579 42.0277 79.8025 41.9384 79.8025C38.3246 79.8695 34.6661 79.8471 30.9854 79.7802C19.2069 79.5348 9.30229 70.9241 7.6069 59.2795C7.45075 58.231 7.38383 56.7587 7.36152 54.8402C7.33921 51.2487 7.33921 47.6348 7.36152 44.0433C7.36152 42.1248 7.45075 40.6302 7.6069 39.6041C9.01229 29.5879 16.5969 21.7579 26.3231 19.5495C27.2823 19.3264 28.3531 19.2148 29.5131 19.1702C32.6138 19.0587 35.7146 19.0364 38.8154 19.0587C49.59 19.1702 60.3646 19.1033 71.1169 19.0141C71.1615 19.0141 71.2284 19.0587 71.2284 19.1033C71.2284 19.1256 71.2284 19.1256 71.2284 19.1479L65.9415 32.5102C65.8969 32.5995 65.83 32.6664 65.7184 32.6664C57.3977 32.6441 49.2777 32.6441 41.3138 32.6441C33.4169 32.6441 26.8361 38.0425 24.9846 45.6495C22.7092 54.8625 28.9777 64.0979 38.1461 65.9048C39.3284 66.1279 40.6223 66.0833 41.8492 66.061C42.0054 66.061 42.1392 66.1948 42.1392 66.351V66.3733C41.8938 70.7679 42.1392 75.2071 42.0723 79.6687Z" fill="white"/>
<path d="M68.8861 47.5456V44.1326C68.8861 44.0656 68.9308 43.9987 68.9977 43.9764C69.2654 43.8426 69.5331 43.8426 69.8231 43.9318C69.9123 43.9541 69.9569 44.021 69.9569 44.1326L69.9346 47.6572C69.9346 47.7018 69.9569 47.7241 70.0015 47.7241H75.6008C75.69 47.7241 75.7346 47.7687 75.7346 47.8579L75.7569 79.7133C75.7569 79.8026 75.7123 79.8472 75.6231 79.8472H63.0415C62.9746 79.8472 62.93 79.8026 62.93 79.7356L62.9746 48.0364C62.9746 47.8133 63.0861 47.7241 63.2869 47.7241H68.7077C68.7969 47.7018 68.8861 47.6349 68.8861 47.5456Z" fill="white"/>
<path d="M53.5161 58.6771L58.7808 58.6325C58.8923 58.6325 58.9815 58.7217 58.9815 58.8109L59.0038 79.6463C59.0038 79.7579 58.9146 79.8471 58.8031 79.8471H46.5785C46.4669 79.8471 46.3777 79.7579 46.3777 79.6463V58.8109C46.3777 58.6994 46.4669 58.6102 46.5785 58.6102L52.1108 58.6994C52.2223 58.6994 52.3115 58.6102 52.3115 58.5209V54.9963C52.3115 54.8848 52.4008 54.7956 52.5123 54.7956C52.5123 54.7956 52.5123 54.7956 52.5346 54.7956L53.1592 54.8402C53.2708 54.8402 53.3377 54.9294 53.3377 55.0409V58.4986C53.3154 58.5879 53.4046 58.6771 53.5161 58.6771Z" fill="white"/>
<path d="M83.7877 45.984C83.7877 42.2363 84.3677 39.7155 85.55 38.3548C86.71 36.994 88.9185 36.3025 92.1308 36.3025C94.1162 36.3025 96.1462 36.5925 98.2208 37.1725C98.4439 37.2617 98.5331 37.4178 98.5331 37.6186V40.4517C98.5331 40.7417 98.3993 40.8532 98.1093 40.7863C95.7893 40.4071 93.8039 40.2286 92.1308 40.2286C90.5693 40.2286 89.5208 40.6078 89.0523 41.3217C88.5839 42.0355 88.3385 43.5748 88.3385 45.9394C88.45 50.914 88.9185 51.5386 91.707 51.6502C93.4246 51.6502 95.6331 51.4271 98.3769 51.0032C98.6669 50.9586 98.8008 51.0478 98.8008 51.3378V54.2602V54.5948C96.4808 55.264 94.1162 55.5763 91.707 55.5763C85.4831 55.5094 83.9216 53.5909 83.7877 45.984Z" fill="white"/>
<path d="M100.764 55.2866C100.452 55.2866 100.34 55.1304 100.452 54.8404L106.965 37.0166C107.055 36.7935 107.188 36.7043 107.412 36.7043H111.293C111.538 36.7043 111.672 36.8158 111.739 37.0166L118.253 54.8404C118.365 55.1304 118.253 55.2866 117.941 55.2866H113.948C113.702 55.2866 113.546 55.175 113.479 54.9743L112.319 51.9404H106.385L105.225 54.9743C105.136 55.1973 104.98 55.2866 104.757 55.2866H100.764ZM107.322 48.1927H111.338L109.33 42.0358L107.322 48.1927Z" fill="white"/>
<path d="M120.64 55.2865C120.372 55.2865 120.238 55.1527 120.238 54.885V37.0835C120.238 36.8158 120.372 36.6819 120.64 36.6819H124.254C124.477 36.6819 124.633 36.7711 124.722 36.9496L131.571 47.5235V37.0835C131.571 36.8158 131.705 36.6819 131.972 36.6819H135.497C135.765 36.6819 135.898 36.8158 135.898 37.0835V54.885C135.898 55.1527 135.765 55.2865 135.497 55.2865H131.838C131.615 55.2865 131.459 55.1973 131.37 55.0188L124.522 44.0435V54.885C124.522 55.1527 124.388 55.2865 124.12 55.2865H120.64Z" fill="white"/>
<path d="M139.646 55.376C139.378 55.376 139.245 55.2422 139.245 54.9745V36.9722C139.245 36.7045 139.378 36.5706 139.646 36.5706H147.387C150.309 36.5706 152.317 37.2398 153.41 38.556C154.503 39.8945 155.061 42.3483 155.061 45.9845C155.061 49.576 154.503 52.0522 153.41 53.3683C152.317 54.7068 150.331 55.3537 147.387 55.3537H139.646V55.376ZM143.907 51.5391H146.45C148.301 51.5391 149.238 51.2268 149.796 50.4237C149.975 50.1783 150.108 49.8437 150.198 49.3529C150.376 48.3937 150.421 47.6352 150.421 46.0068C150.421 44.0883 150.376 43.2183 150.086 42.2368C149.751 40.876 148.636 40.4298 146.472 40.4298H143.929V51.5391H143.907Z" fill="white"/>
<path d="M158.228 55.2865C157.961 55.2865 157.827 55.1527 157.827 54.885V37.0835C157.827 36.8158 157.961 36.6819 158.228 36.6819H161.842C162.11 36.6819 162.244 36.8158 162.244 37.0835V51.0927H170.832C171.1 51.0927 171.234 51.2265 171.234 51.4942V54.885C171.234 55.1527 171.1 55.2865 170.832 55.2865H158.228Z" fill="white"/>
<path d="M173.732 55.2865C173.465 55.2865 173.331 55.1527 173.331 54.885V37.0835C173.331 36.8158 173.465 36.6819 173.732 36.6819H187.095C187.362 36.6819 187.496 36.8158 187.496 37.0835V40.0281C187.496 40.2958 187.362 40.4296 187.095 40.4296H177.748V44.0881H183.548C183.815 44.0881 183.949 44.2219 183.949 44.4896V47.2781C183.949 47.5458 183.815 47.6796 183.548 47.6796H177.748V51.5388H187.228C187.496 51.5388 187.63 51.6727 187.63 51.9404V54.885C187.63 55.1527 187.496 55.2865 187.228 55.2865H173.732Z" fill="white"/>
<path d="M195.973 55.2866C195.661 55.2866 195.549 55.1304 195.661 54.8404L202.175 37.0166C202.264 36.7935 202.398 36.7043 202.621 36.7043H206.502C206.748 36.7043 206.882 36.8158 206.948 37.0166L213.462 54.8404C213.574 55.1304 213.462 55.2866 213.15 55.2866H209.157C208.912 55.2866 208.755 55.175 208.688 54.9743L207.528 51.9404H201.595L200.435 54.9743C200.345 55.1973 200.189 55.2866 199.966 55.2866H195.973ZM202.532 48.1927H206.547L204.517 42.0358L202.532 48.1927Z" fill="white"/>
<path d="M215.827 55.376C215.559 55.376 215.425 55.2422 215.425 54.9745V36.9722C215.425 36.7045 215.559 36.5706 215.827 36.5706H223.568C226.49 36.5706 228.498 37.2398 229.591 38.556C230.684 39.8945 231.241 42.3483 231.241 45.9845C231.241 49.576 230.684 52.0522 229.591 53.3683C228.498 54.7068 226.512 55.3537 223.568 55.3537H215.827V55.376ZM220.088 51.5391H222.631C224.482 51.5391 225.419 51.2268 225.977 50.4237C226.155 50.1783 226.289 49.8437 226.378 49.3529C226.557 48.3937 226.602 47.6352 226.602 46.0068C226.602 44.0883 226.557 43.2183 226.267 42.2368C225.932 40.876 224.817 40.4298 222.653 40.4298H220.11V51.5391H220.088Z" fill="white"/>
<path d="M234.409 55.2865C234.142 55.2865 234.008 55.1527 234.008 54.885V37.0835C234.008 36.8158 234.142 36.6819 234.409 36.6819H239.25C239.495 36.6819 239.629 36.7935 239.696 36.9942L243.979 49.085L248.24 36.9942C248.329 36.7711 248.463 36.6819 248.686 36.6819H253.505C253.772 36.6819 253.906 36.8158 253.906 37.0835V54.885C253.906 55.1527 253.772 55.2865 253.505 55.2865H250.002C249.735 55.2865 249.601 55.1527 249.601 54.885V43.865L245.898 54.9742C245.808 55.1973 245.675 55.2865 245.452 55.2865H242.485C242.239 55.2865 242.105 55.175 242.038 54.9742L238.313 43.5973V54.885C238.313 55.1527 238.179 55.2865 237.912 55.2865H234.409Z" fill="white"/>
</svg>
