<svg width="28" height="28" viewBox="0 0 28 28" fill="none" xmlns="http://www.w3.org/2000/svg">
<path d="M27.01 9.59214C28.6847 7.91738 27.921 5.96127 27.01 5.01001L22.9906 0.990597C21.3024 -0.684159 19.3597 0.0795297 18.4084 0.990597L16.1308 3.28166H12.6607C10.115 3.28166 8.64125 4.62147 7.89096 6.16224L1.94222 12.111L1.94222 17.4702L0.990963 18.4081C-0.683793 20.0962 0.0798959 22.0389 0.990963 22.9902L5.01038 27.0096C5.73387 27.7331 6.51096 28.0011 7.24785 28.0011C8.19911 28.0011 9.06998 27.5321 9.59251 27.0096L13.21 23.3787H18.0199C20.2975 23.3787 21.4498 21.9585 21.8651 20.5651C23.3791 20.1632 24.2098 19.011 24.5447 17.8855C26.6214 17.3496 27.3985 15.3801 27.3985 14.0001V9.98068H26.608L27.01 9.59214ZM24.7189 14.0001C24.7189 14.603 24.4643 15.3399 23.3791 15.3399H22.0393V16.6797C22.0393 17.2826 21.7847 18.0195 20.6995 18.0195H19.3597V19.3593C19.3597 19.9622 19.1051 20.6991 18.0199 20.6991H12.1113L7.71678 25.0937C7.30144 25.4822 7.06028 25.2545 6.9129 25.1071L2.90688 21.1145C2.51834 20.6991 2.74611 20.458 2.89349 20.3106L4.62183 18.5688V13.2096L7.30144 10.53V12.6603C7.30144 14.2815 8.37329 16.6797 11.3209 16.6797C14.2684 16.6797 15.3403 14.2815 15.3403 12.6603L24.7189 12.6603V14.0001ZM25.1074 7.68962L22.8298 9.98068L12.6607 9.98068V12.6603C12.6607 13.2632 12.4061 14.0001 11.3209 14.0001C10.2356 14.0001 9.98105 13.2632 9.98105 12.6603V8.64088C9.98105 8.02457 10.2088 5.96127 12.6607 5.96127H17.2294L20.2841 2.90652C20.6995 2.51797 20.9407 2.74574 21.088 2.89312L25.094 6.88574C25.4826 7.30107 25.2548 7.54224 25.1074 7.68962Z" fill="#646872"/>
</svg>
