<svg width="28" height="21" viewBox="0 0 28 21" fill="none" xmlns="http://www.w3.org/2000/svg">
<path d="M1.90329 18.7635H25.6486V1.72482H1.90329V18.7635ZM26.2479 19.9622H1.30394C0.971294 19.9622 0.70459 19.6916 0.70459 19.3615V1.12681C0.70459 0.794661 0.971943 0.526157 1.30394 0.526157H26.2479C26.5799 0.526157 26.8473 0.794661 26.8473 1.12681V19.3615C26.8473 19.6916 26.5806 19.9622 26.2479 19.9622Z" fill="#646872" stroke="#646872" strokeWidth="0.5"/>
<path d="M26.0758 19.3208L26.0652 19.3314H26.2169V19.1796L26.2064 19.1902L26.0758 19.3208ZM26.2064 1.29804L26.2169 1.30859V1.15811H26.0665L26.0758 1.16738L26.2064 1.29804ZM1.47691 1.16729L1.4861 1.15811H1.33555V1.30858L1.34618 1.29795L1.47691 1.16729ZM1.33555 19.1796V19.3314H1.48743L1.47691 19.3209L1.34618 19.1903L1.33555 19.1796ZM2.03424 18.6314H25.5182V1.85677H2.03424V18.6314ZM26.2496 20.0928H1.3043C0.900484 20.0928 0.574219 19.7658 0.574219 19.3614V1.12676C0.574219 0.724194 0.900055 0.395443 1.3043 0.395443H26.2496C26.6522 0.395443 26.9796 0.723829 26.9796 1.12676V19.3614C26.9796 19.7661 26.6517 20.0928 26.2496 20.0928Z" fill="#646872" stroke="#646872" strokeWidth="0.5"/>
<path d="M13.8673 13.2314L13.7758 13.2674L13.6843 13.2314L13.447 13.1381L13.4033 13.1209L13.3688 13.0891L0.896776 1.56642L0.896774 1.56643L0.895785 1.5655C0.656072 1.34162 0.636579 0.962539 0.86324 0.719254C1.08942 0.475224 1.46667 0.462329 1.70989 0.685088L1.71069 0.685826L13.7758 11.8331L25.8407 0.685881C26.0832 0.46174 26.462 0.475653 26.6879 0.718857C26.9149 0.962126 26.8955 1.3415 26.6557 1.56551L26.6547 1.56642L14.1827 13.0891L14.1482 13.1209L14.1046 13.1381L13.8673 13.2314Z" fill="#646872" stroke="#646872" strokeWidth="0.5"/>
<path d="M26.7852 0.631952C26.6525 0.485961 26.4695 0.403643 26.2772 0.395627L26.2667 0.395193V0.395411C26.0819 0.395411 25.8984 0.454865 25.7526 0.590209L13.7774 11.6544L1.80046 0.589773L1.79963 0.589008C1.65053 0.45251 1.45888 0.397276 1.28676 0.395425L1.27365 0.395284L1.27366 0.395627C1.07999 0.403697 0.898575 0.486933 0.766551 0.631021L26.7852 0.631952ZM26.7852 0.631952C26.9177 0.773643 26.9859 0.962654 26.9779 1.15438M26.7852 0.631952L26.9779 1.15438M26.9779 1.15438C26.9698 1.34907 26.8868 1.53005 26.7448 1.66194L26.7443 1.66237L14.2725 13.1849L26.9779 1.15438ZM14.2723 13.185C14.1371 13.3101 13.9607 13.3794 13.7774 13.3794C13.5912 13.3794 13.4168 13.3099 13.281 13.1861L13.281 13.1861L13.2798 13.185L0.807778 1.66237L0.807701 1.6623C0.510945 1.3879 0.495713 0.926238 0.766445 0.631136L14.2723 13.185ZM13.8262 12.5581L13.8681 12.5194H13.8654H13.6881H13.684L13.7259 12.5581H13.8262Z" fill="#646872" stroke="#646872" strokeWidth="0.5"/>
</svg>
