<svg width="27" height="28" viewBox="0 0 27 28" fill="none" xmlns="http://www.w3.org/2000/svg">
<path d="M1.8071 25.4394H6.3431V13.9714H1.8071V25.4394ZM6.94238 26.6381H1.20775C0.875722 26.6381 0.608398 26.3682 0.608398 26.0387V13.3707C0.608398 13.0393 0.876343 12.7714 1.20775 12.7714H6.94238C7.27379 12.7714 7.54173 13.0393 7.54173 13.3707V26.0387C7.54173 26.3682 7.27441 26.6381 6.94238 26.6381Z" fill="#646872" stroke="#646872" strokeWidth="0.5"/>
<path d="M6.77021 25.9968L6.76101 26.006H6.91136V25.8556L6.90088 25.8661L6.77021 25.9968ZM6.90175 13.5456L6.91136 13.5553V13.4034H6.76111L6.77109 13.4135L6.90175 13.5456ZM1.37969 13.4135L1.38967 13.4034H1.23936V13.5553L1.24903 13.5456L1.37969 13.4135ZM1.23936 25.8556V26.006H1.38977L1.38057 25.9968L1.2499 25.8661L1.23936 25.8556ZM1.93936 25.3073H6.21273V14.102H1.93936V25.3073ZM6.94268 26.7687H1.20804C0.806013 26.7687 0.478027 26.4408 0.478027 26.0387V13.3708C0.478027 12.9687 0.805925 12.6407 1.20804 12.6407H6.94268C7.34658 12.6407 7.67269 12.9692 7.67269 13.3708V26.0387C7.67269 26.4404 7.34649 26.7687 6.94268 26.7687Z" fill="#646872" stroke="#646872" strokeWidth="0.5"/>
<path d="M11.1978 25.4394H15.7338V8.01801H11.1978V25.4394ZM16.3332 26.6381H10.5998C10.2678 26.6381 10.0005 26.3682 10.0005 26.0387V7.41866C10.0005 7.08726 10.2684 6.81931 10.5998 6.81931H16.3332C16.6653 6.81931 16.9338 7.08667 16.9338 7.41866V26.0387C16.9338 26.3688 16.6659 26.6381 16.3332 26.6381Z" fill="#646872" stroke="#646872" strokeWidth="0.5"/>
<path d="M16.1608 25.9968L16.1516 26.006H16.302V25.8556L16.2914 25.8661L16.1608 25.9968ZM16.2913 7.5912L16.302 7.60184V7.45006H16.1501L16.1607 7.46061L16.2913 7.5912ZM10.7712 7.46061L10.7818 7.45006H10.6313V7.60047L10.6406 7.5912L10.7712 7.46061ZM10.6313 25.8569V26.006H10.7803L10.7711 25.9968L10.6405 25.8661L10.6313 25.8569ZM11.33 25.3073H15.6033V8.14875H11.33V25.3073ZM16.3333 26.7687H10.5987C10.1966 26.7687 9.86865 26.4408 9.86865 26.0387V7.41868C9.86865 7.01478 10.1971 6.68873 10.5987 6.68873H16.3333C16.7358 6.68873 17.0646 7.01435 17.0646 7.41868V26.0387C17.0646 26.4413 16.7362 26.7687 16.3333 26.7687Z" fill="#646872" stroke="#646872" strokeWidth="0.5"/>
<path d="M20.3715 25.4394H24.9076V2.03402H20.3715V25.4394ZM25.5068 26.6381H19.7722C19.4402 26.6381 19.1729 26.3682 19.1729 26.0387V1.43468C19.1729 1.10522 19.4402 0.835325 19.7722 0.835325H25.5068C25.8389 0.835325 26.1062 1.10522 26.1062 1.43468V26.0387C26.1062 26.3682 25.8389 26.6381 25.5068 26.6381Z" fill="#646872" stroke="#646872" strokeWidth="0.5"/>
<path d="M25.334 25.9968L25.3248 26.006H25.4739V25.8569L25.4647 25.8661L25.334 25.9968ZM25.4646 1.60722L25.4739 1.61649V1.46738H25.3247L25.3339 1.47662L25.4646 1.60722ZM19.9445 1.47662L19.9537 1.46738H19.8032V1.61785L19.8138 1.60722L19.9445 1.47662ZM19.8032 25.8556V26.006H19.9536L19.9444 25.9968L19.8137 25.8661L19.8032 25.8556ZM20.5019 25.3073H24.7765V2.16607H20.5019V25.3073ZM25.5065 26.7687H19.7718C19.3689 26.7687 19.0405 26.4413 19.0405 26.0387V1.43469C19.0405 1.03215 19.3689 0.704746 19.7718 0.704746H25.5065C25.9103 0.704746 26.2365 1.03303 26.2365 1.43469V26.0387C26.2365 26.4404 25.9103 26.7687 25.5065 26.7687Z" fill="#646872" stroke="#646872" strokeWidth="0.5"/>
</svg>
