<svg width="29" height="28" viewBox="0 0 29 28" fill="none" xmlns="http://www.w3.org/2000/svg">
<path d="M27.3162 14.9213L27.2212 14.9603L27.1262 14.9212L26.8796 14.8199L26.8333 14.8009L26.7979 14.7654L14.3507 2.31692L1.90339 14.7654L1.90338 14.7655C1.66975 14.9991 1.29023 14.9991 1.05659 14.7655C0.822272 14.5311 0.820865 14.1512 1.05697 13.9169C1.05713 13.9167 1.05729 13.9165 1.05746 13.9164L13.9272 1.04657C14.156 0.817776 14.5456 0.819059 14.7745 1.04567L14.7754 1.04657L27.6439 13.9164C27.6441 13.9165 27.6442 13.9167 27.6443 13.9168C27.8805 14.1511 27.8791 14.5311 27.6448 14.7655L27.6093 14.8009L27.563 14.8199L27.3162 14.9213Z" fill="#101116" stroke="#101116" strokeWidth="0.5"/>
<path d="M14.3008 1.56668L14.2699 1.59758L14.3472 1.56668H14.3008ZM14.4018 1.56668H14.3581L14.4317 1.59656L14.4018 1.56668ZM0.963223 13.8252L1.14 14.002L0.963223 13.8252L13.8352 0.953253C13.9776 0.810837 14.1724 0.75003 14.3513 0.75003C14.5303 0.75003 14.725 0.810837 14.8674 0.953253L14.8674 0.953261L27.7368 13.8239C27.7371 13.8242 27.7374 13.8245 27.7377 13.8248C27.8758 13.9613 27.9526 14.1466 27.9526 14.3407C27.9526 14.5355 27.8753 14.7203 27.7381 14.8575C27.6012 14.9944 27.4178 15.072 27.2213 15.072C27.0263 15.072 26.8416 14.9946 26.7045 14.8575L26.7045 14.8575L14.352 2.50357L1.99672 14.8575C1.99672 14.8575 1.99672 14.8575 1.99672 14.8575C1.71775 15.1364 1.24218 15.1364 0.963223 14.8575C0.678926 14.5732 0.678926 14.1095 0.963223 13.8252Z" fill="#101116" stroke="#101116" strokeWidth="0.5"/>
<path d="M23.7639 26.912H17.5533C17.2212 26.912 16.9539 26.6421 16.9539 26.3127V17.6506H11.7473V26.3127C11.7473 26.6421 11.4799 26.912 11.1479 26.912H4.93724C4.60523 26.912 4.33789 26.6421 4.33789 26.3127V11.1833C4.33789 10.8526 4.60647 10.5853 4.93724 10.5853C5.268 10.5853 5.53659 10.8526 5.53659 11.1833V25.7133H10.5473V17.0526C10.5473 16.72 10.8177 16.4533 11.1479 16.4533H17.5533C17.8834 16.4533 18.1539 16.72 18.1539 17.0526V25.7133H23.1646V11.1833C23.1646 10.852 23.4351 10.5853 23.7639 10.5853C24.0947 10.5853 24.3633 10.8526 24.3633 11.1833V26.3127C24.3633 26.6421 24.0959 26.912 23.7639 26.912Z" fill="#101116" stroke="#101116" strokeWidth="0.5"/>
<path d="M11.3216 17.0936L11.3314 17.0839H11.1795V17.2343L11.191 17.223L11.3216 17.0936ZM17.5222 17.0839H17.3702L17.3791 17.0927L17.5111 17.222L17.5222 17.2329V17.0839ZM17.5963 26.1409L17.5862 26.1309V26.2813H17.738L17.7282 26.2715L17.5963 26.1409ZM23.5907 26.2716L23.5809 26.2813H23.7328V26.131L23.7227 26.141L23.5907 26.2716ZM11.1169 26.2813V26.1296L11.1054 26.141L10.9733 26.2716L10.9636 26.2813H11.1169ZM4.96885 26.2813H5.1206L5.11 26.2707L4.9794 26.14L4.96885 26.1295V26.2813ZM23.7655 27.0426H17.5535C17.1514 27.0426 16.8235 26.7146 16.8235 26.3126V17.7826H11.8782V26.3126C11.8782 26.7147 11.5502 27.0426 11.1481 27.0426H4.93747C4.53536 27.0426 4.20752 26.7146 4.20752 26.3126V11.1833C4.20752 10.7812 4.53536 10.4533 4.93747 10.4533C5.34127 10.4533 5.66755 10.7816 5.66755 11.1833V25.5826H10.4169V17.0526C10.4169 16.6492 10.7447 16.3213 11.1481 16.3213H17.5535C17.9569 16.3213 18.2849 16.6492 18.2849 17.0526V25.5826H23.0342V11.1833C23.0342 10.7808 23.3625 10.4533 23.7655 10.4533C24.1675 10.4533 24.4955 10.7811 24.4955 11.1833V26.3126C24.4955 26.7147 24.1675 27.0426 23.7655 27.0426Z" fill="#101116" stroke="#101116" strokeWidth="0.5"/>
</svg>
