<svg width="43" height="27" viewBox="0 0 43 27" fill="none" xmlns="http://www.w3.org/2000/svg">
<mask id="mask0_410_3073" style="mask-type:alpha" maskUnits="userSpaceOnUse" x="0" y="0" width="19" height="27">
<path d="M16.2524 8.83694L17.5616 4.9094L9.70666 0.327271L4.46994 5.2367C3.16072 5.89128 1.06595 8.70602 0.54228 9.49153C-0.11231 10.4734 -0.11231 18.9831 0.214985 23.5652C0.54228 28.1473 5.779 25.2017 5.779 25.529C5.779 25.7908 10.7975 23.0197 13.3068 21.6014L14.9433 16.3647L18.2162 14.401L18.5435 12.4372L16.2524 8.83694Z" fill="#D9D9D9"/>
</mask>
<g mask="url(#mask0_410_3073)">
<path d="M9.31564 15.5372C11.9793 15.5372 14.1386 13.3779 14.1386 10.7142C14.1386 8.05055 11.9793 5.89124 9.31564 5.89124C6.65199 5.89124 4.49268 8.05055 4.49268 10.7142C4.49268 13.3779 6.65199 15.5372 9.31564 15.5372Z" stroke="#646872" strokeWidth="2.5" strokeLinecap="round" strokeLinejoin="round"/>
<path d="M1.52441 22.9573C1.52441 19.2473 4.49239 15.5374 9.31536 15.5374C14.1383 15.5374 17.1063 19.2473 17.1063 22.9573" stroke="#646872" strokeWidth="2.5" strokeLinecap="round" strokeLinejoin="round"/>
</g>
<mask id="mask1_410_3073" style="mask-type:alpha" maskUnits="userSpaceOnUse" x="23" y="0" width="20" height="26">
<path d="M25.9434 8.50967L24.6342 4.58213L32.4891 0L37.7259 4.90942C39.0351 5.56401 41.1298 8.37875 41.6535 9.16426C42.3081 10.1461 42.3081 18.6558 41.9808 23.2379C41.6535 27.8201 36.4168 24.8744 36.4168 25.2017C36.4168 25.4635 31.3983 22.6925 28.889 21.2742L27.2525 16.0375L23.9796 14.0737L23.6523 12.1099L25.9434 8.50967Z" fill="#D9D9D9"/>
</mask>
<g mask="url(#mask1_410_3073)">
<path d="M32.8802 15.2099C30.2165 15.2099 28.0572 13.0506 28.0572 10.3869C28.0572 7.72328 30.2165 5.56396 32.8802 5.56396C35.5438 5.56396 37.7031 7.72328 37.7031 10.3869C37.7031 13.0506 35.5438 15.2099 32.8802 15.2099Z" stroke="#646872" strokeWidth="2.5" strokeLinecap="round" strokeLinejoin="round"/>
<path d="M40.6714 22.6299C40.6714 18.9199 37.7034 15.21 32.8804 15.21C28.0575 15.21 25.0895 18.9199 25.0895 22.6299" stroke="#646872" strokeWidth="2.5" strokeLinecap="round" strokeLinejoin="round"/>
</g>
<path d="M21.0984 13.3865C23.762 13.3865 25.9213 11.2272 25.9213 8.56357C25.9213 5.89992 23.762 3.7406 21.0984 3.7406C18.4347 3.7406 16.2754 5.89992 16.2754 8.56357C16.2754 11.2272 18.4347 13.3865 21.0984 13.3865Z" stroke="#646872" strokeWidth="2.5" strokeLinecap="round" strokeLinejoin="round"/>
<path d="M13.3071 20.8065C13.3071 17.0966 16.2751 13.3866 21.0981 13.3866C25.921 13.3866 28.889 17.0966 28.889 20.8065" stroke="#646872" strokeWidth="2.5" strokeLinecap="round" strokeLinejoin="round"/>
</svg>
