<svg width="26" height="26" viewBox="0 0 26 26" fill="none" xmlns="http://www.w3.org/2000/svg">
<path d="M1.85714 10.2143H24.1429V8.35711C24.1429 7.86456 23.9472 7.39219 23.5989 7.04391C23.2506 6.69563 22.7783 6.49997 22.2857 6.49997H3.71429C3.22174 6.49997 2.74937 6.69563 2.40109 7.04391C2.05281 7.39219 1.85714 7.86456 1.85714 8.35711V10.2143ZM1.85714 12.0714V21.3571C1.85714 21.8497 2.05281 22.322 2.40109 22.6703C2.74937 23.0186 3.22174 23.2143 3.71429 23.2143H22.2857C22.7783 23.2143 23.2506 23.0186 23.5989 22.6703C23.9472 22.322 24.1429 21.8497 24.1429 21.3571V12.0714H1.85714ZM3.71429 4.64282H22.2857C23.2708 4.64282 24.2155 5.03415 24.9121 5.73071C25.6087 6.42727 26 7.37202 26 8.35711V21.3571C26 22.3422 25.6087 23.2869 24.9121 23.9835C24.2155 24.6801 23.2708 25.0714 22.2857 25.0714H3.71429C2.7292 25.0714 1.78445 24.6801 1.08789 23.9835C0.391325 23.2869 0 22.3422 0 21.3571V8.35711C0 7.37202 0.391325 6.42727 1.08789 5.73071C1.78445 5.03415 2.7292 4.64282 3.71429 4.64282Z" fill="#646872"/>
<path d="M9.28585 2.78573V4.64287H16.7144V2.78573H9.28585ZM9.28585 0.928589H16.7144C17.207 0.928589 17.6793 1.12425 18.0276 1.47253C18.3759 1.82082 18.5716 2.29319 18.5716 2.78573V4.64287C18.5716 5.13542 18.3759 5.60779 18.0276 5.95607C17.6793 6.30436 17.207 6.50002 16.7144 6.50002H9.28585C8.79331 6.50002 8.32094 6.30436 7.97266 5.95607C7.62437 5.60779 7.42871 5.13542 7.42871 4.64287V2.78573C7.42871 2.29319 7.62437 1.82082 7.97266 1.47253C8.32094 1.12425 8.79331 0.928589 9.28585 0.928589Z" fill="#646872"/>
</svg>
