<svg width="15" height="19" viewBox="0 0 15 19" fill="none" xmlns="http://www.w3.org/2000/svg">
<path id="Vector" d="M8.90256 1.28304C8.62131 1.00214 8.24006 0.84436 7.84256 0.84436C7.44506 0.84436 7.06381 1.00214 6.78256 1.28304L1.12356 6.93904C0.842168 7.22044 0.684082 7.60209 0.684082 8.00004C0.684082 8.39799 0.842168 8.77965 1.12356 9.06104C1.40496 9.34244 1.78661 9.50052 2.18456 9.50052C2.58251 9.50052 2.96417 9.34244 3.24556 9.06104L6.34256 5.96504L6.34256 17.5C6.34256 17.8979 6.5006 18.2794 6.7819 18.5607C7.06321 18.842 7.44474 19 7.84256 19C8.24039 19 8.62192 18.842 8.90322 18.5607C9.18453 18.2794 9.34256 17.8979 9.34256 17.5L9.34256 5.96504L12.4386 9.06104C12.5779 9.20037 12.7433 9.3109 12.9254 9.3863C13.1074 9.46171 13.3025 9.50052 13.4996 9.50052C13.6966 9.50052 13.8917 9.46171 14.0738 9.3863C14.2558 9.3109 14.4212 9.20037 14.5606 9.06104C14.6999 8.92171 14.8104 8.7563 14.8858 8.57425C14.9612 8.3922 15 8.19709 15 8.00004C15 7.80299 14.9612 7.60788 14.8858 7.42583C14.8104 7.24378 14.6999 7.07837 14.5606 6.93904L8.90256 1.28304Z" fill="#E8E8E8"/>
</svg>
