<svg width="15" height="19" viewBox="0 0 15 19" fill="none" xmlns="http://www.w3.org/2000/svg">
<path id="Vector" d="M6.78152 18.5613C7.06277 18.8422 7.44402 19 7.84152 19C8.23902 19 8.62027 18.8422 8.90152 18.5613L14.5605 12.9053C14.8419 12.6239 15 12.2423 15 11.8443C15 11.4464 14.8419 11.0647 14.5605 10.7833C14.2791 10.5019 13.8975 10.3438 13.4995 10.3438C13.1016 10.3438 12.7199 10.5019 12.4385 10.7833L9.34152 13.8793L9.34152 2.34432C9.34152 1.94649 9.18349 1.56497 8.90218 1.28366C8.62088 1.00236 8.23935 0.84432 7.84152 0.84432C7.4437 0.84432 7.06216 1.00235 6.78086 1.28366C6.49956 1.56497 6.34152 1.94649 6.34152 2.34432L6.34152 13.8793L3.24552 10.7833C3.10619 10.644 2.94078 10.5335 2.75873 10.4581C2.57668 10.3827 2.38157 10.3438 2.18452 10.3438C1.98747 10.3438 1.79236 10.3827 1.61031 10.4581C1.42826 10.5335 1.26285 10.644 1.12352 10.7833C0.984187 10.9227 0.873664 11.0881 0.798258 11.2701C0.722851 11.4522 0.68404 11.6473 0.68404 11.8443C0.68404 12.0414 0.722851 12.2365 0.798257 12.4185C0.873664 12.6006 0.984187 12.766 1.12352 12.9053L6.78152 18.5613Z" fill="#E8E8E8"/>
</svg>
