<svg width="60" height="60" viewBox="0 0 60 60" fill="none" xmlns="http://www.w3.org/2000/svg">
<g id="Group 59">
<rect x="6" y="5.87228" width="48" height="48" rx="15" fill="#39445B" fillOpacity="0.2" shapeRendering="crispEdges"/>
<rect x="6.34375" y="6.21603" width="47.3125" height="47.3125" rx="14.6562" stroke="#39445B" strokeWidth="0.6875" shapeRendering="crispEdges"/>
<path id="Vector" d="M28.9171 40.3326C29.2546 40.6697 29.7121 40.8591 30.1891 40.8591C30.6661 40.8591 31.1236 40.6697 31.4611 40.3326L38.2519 33.5454C38.5896 33.2078 38.7793 32.7498 38.7793 32.2722C38.7793 31.7947 38.5896 31.3367 38.2519 30.999C37.9142 30.6614 37.4563 30.4717 36.9787 30.4717C36.5012 30.4717 36.0432 30.6614 35.7055 30.999L31.9891 34.7142L31.9891 20.8722C31.9891 20.3948 31.7995 19.937 31.4619 19.5994C31.1243 19.2619 30.6665 19.0722 30.1891 19.0722C29.7117 19.0722 29.2539 19.2619 28.9163 19.5994C28.5788 19.937 28.3891 20.3948 28.3891 20.8722L28.3891 34.7142L24.6739 30.999C24.5067 30.8318 24.3082 30.6992 24.0898 30.6087C23.8713 30.5182 23.6372 30.4717 23.4007 30.4717C23.1643 30.4717 22.9301 30.5182 22.7117 30.6087C22.4932 30.6992 22.2947 30.8318 22.1275 30.999C21.9603 31.1662 21.8277 31.3647 21.7372 31.5832C21.6467 31.8016 21.6001 32.0358 21.6001 32.2722C21.6001 32.5087 21.6467 32.7428 21.7372 32.9613C21.8277 33.1797 21.9603 33.3782 22.1275 33.5454L28.9171 40.3326Z" fill="white"/>
</g>
</svg>
