<svg width="60" height="60" viewBox="0 0 60 60" fill="none" xmlns="http://www.w3.org/2000/svg">
<g id="Group 59">
<rect x="6" y="6.03115" width="48" height="48" rx="15" fill="#39445B" fillOpacity="0.2" shapeRendering="crispEdges"/>
<rect x="6.34375" y="6.3749" width="47.3125" height="47.3125" rx="14.6562" stroke="#39445B" strokeWidth="0.6875" shapeRendering="crispEdges"/>
<path id="Vector" d="M31.4618 19.7575C31.1243 19.4204 30.6668 19.2311 30.1898 19.2311C29.7128 19.2311 29.2553 19.4204 28.9178 19.7575L22.127 26.5447C21.7893 26.8824 21.5996 27.3404 21.5996 27.8179C21.5996 28.2955 21.7893 28.7534 22.127 29.0911C22.4647 29.4288 22.9226 29.6185 23.4002 29.6185C23.8777 29.6185 24.3357 29.4288 24.6734 29.0911L28.3898 25.3759L28.3898 39.2179C28.3898 39.6953 28.5794 40.1531 28.917 40.4907C29.2546 40.8283 29.7124 41.0179 30.1898 41.0179C30.6672 41.0179 31.125 40.8283 31.4626 40.4907C31.8001 40.1531 31.9898 39.6953 31.9898 39.2179V25.3759L35.705 29.0911C35.8722 29.2583 36.0707 29.3909 36.2891 29.4814C36.5076 29.5719 36.7417 29.6185 36.9782 29.6185C37.2146 29.6185 37.4488 29.5719 37.6672 29.4814C37.8857 29.3909 38.0842 29.2583 38.2514 29.0911C38.4186 28.9239 38.5512 28.7254 38.6417 28.507C38.7322 28.2885 38.7788 28.0544 38.7788 27.8179C38.7788 27.5815 38.7322 27.3473 38.6417 27.1289C38.5512 26.9104 38.4186 26.7119 38.2514 26.5447L31.4618 19.7575Z" fill="white"/>
</g>
</svg>
