<svg width="33" height="32" viewBox="0 0 33 32" fill="none" xmlns="http://www.w3.org/2000/svg">
<g id="Component 16">
<path id="Vector" d="M31.8366 17.3899C32.5176 16.6215 32.5176 15.4657 31.8366 14.6973L29.9146 12.5283C29.5422 12.108 29.3605 11.5523 29.4127 10.9932L29.6802 8.12778C29.7752 7.11081 29.0997 6.18167 28.1031 5.95824L25.2242 5.31287C24.6813 5.19116 24.2121 4.85193 23.9263 4.37448L22.4161 1.85084C21.8959 0.981691 20.8147 0.62897 19.8821 1.0242L17.1468 2.18339C16.6405 2.39794 16.0689 2.39795 15.5626 2.18339L12.8251 1.02324C11.8934 0.628426 10.8133 0.97996 10.2925 1.84748L8.78482 4.35888C8.49799 4.83667 8.02735 5.17553 7.48326 5.29601L4.61148 5.93194C3.61247 6.15317 2.93425 7.08332 3.02911 8.10213L3.29714 10.9807C3.34906 11.5383 3.16828 12.0927 2.79758 12.5125L0.868211 14.6976C0.189563 15.4661 0.190589 16.6201 0.870601 17.3875L2.79499 19.5592C3.16727 19.9793 3.34898 20.5348 3.29694 21.0937L3.02868 23.9748C2.934 24.9916 3.60941 25.9204 4.60588 26.1438L7.48681 26.7896C8.0288 26.9111 8.49733 27.2494 8.78321 27.7256L10.2902 30.236C10.812 31.1051 11.895 31.4561 12.8274 31.0582L15.5607 29.8919C16.068 29.6755 16.6416 29.6748 17.1495 29.89L19.8843 31.049C20.8159 31.4438 21.8961 31.0923 22.4169 30.2248L23.9262 27.7107C24.2121 27.2344 24.6806 26.8962 25.2226 26.7747L28.1031 26.1289C29.0997 25.9055 29.7752 24.9764 29.6802 23.9594L29.4127 21.094C29.3605 20.5349 29.5422 19.9792 29.9146 19.5589L31.8366 17.3899Z" fill="#1DC7EC"/>
<path id="Vector_2" d="M23.8631 11.956L14.4852 21.3631C14.4035 21.4453 14.3065 21.5105 14.1996 21.5551C14.0927 21.5996 13.9781 21.6225 13.8624 21.6225C13.7467 21.6225 13.6322 21.5996 13.5253 21.5551C13.4184 21.5105 13.3214 21.4453 13.2397 21.3631L9.13686 17.2475C9.05508 17.1655 8.99021 17.0681 8.94595 16.9609C8.90169 16.8537 8.87891 16.7388 8.87891 16.6228C8.87891 16.5068 8.90169 16.3919 8.94595 16.2847C8.99021 16.1775 9.05508 16.0801 9.13686 15.9981C9.21864 15.9161 9.31573 15.851 9.42258 15.8066C9.52943 15.7622 9.64395 15.7394 9.75961 15.7394C9.87526 15.7394 9.98979 15.7622 10.0966 15.8066C10.2035 15.851 10.3006 15.9161 10.3824 15.9981L13.8632 19.4898L22.619 10.7081C22.7842 10.5424 23.0082 10.4493 23.2418 10.4493C23.4754 10.4493 23.6994 10.5424 23.8645 10.7081C24.0297 10.8738 24.1225 11.0985 24.1225 11.3328C24.1225 11.5671 24.0282 11.7903 23.8631 11.956Z" fill="white"/>
</g>
</svg>
