<svg width="96" height="85" viewBox="0 0 96 85" fill="none" xmlns="http://www.w3.org/2000/svg">
<path id="Vector" d="M84.9231 11.0769H72.1292L65.8385 1.64308C65.5014 1.13793 65.045 0.723706 64.5097 0.437103C63.9743 0.150499 63.3765 0.000364638 62.7692 0H33.2308C32.6235 0.000364638 32.0257 0.150499 31.4904 0.437103C30.955 0.723706 30.4986 1.13793 30.1615 1.64308L23.8662 11.0769H11.0769C8.13914 11.0769 5.32168 12.244 3.24436 14.3213C1.16703 16.3986 0 19.2161 0 22.1538V73.8462C0 76.7839 1.16703 79.6014 3.24436 81.6787C5.32168 83.7561 8.13914 84.9231 11.0769 84.9231H84.9231C87.8609 84.9231 90.6783 83.7561 92.7556 81.6787C94.833 79.6014 96 76.7839 96 73.8462V22.1538C96 19.2161 94.833 16.3986 92.7556 14.3213C90.6783 12.244 87.8609 11.0769 84.9231 11.0769ZM88.6154 73.8462C88.6154 74.8254 88.2264 75.7646 87.5339 76.457C86.8415 77.1495 85.9023 77.5385 84.9231 77.5385H11.0769C10.0977 77.5385 9.15851 77.1495 8.46607 76.457C7.77363 75.7646 7.38462 74.8254 7.38462 73.8462V22.1538C7.38462 21.1746 7.77363 20.2354 8.46607 19.543C9.15851 18.8505 10.0977 18.4615 11.0769 18.4615H25.8462C26.4542 18.4619 27.0529 18.3122 27.5892 18.0255C28.1254 17.7389 28.5825 17.3243 28.92 16.8185L35.2062 7.38462H60.7892L67.08 16.8185C67.4175 17.3243 67.8746 17.7389 68.4108 18.0255C68.9471 18.3122 69.5458 18.4619 70.1538 18.4615H84.9231C85.9023 18.4615 86.8415 18.8505 87.5339 19.543C88.2264 20.2354 88.6154 21.1746 88.6154 22.1538V73.8462ZM48 25.8462C43.9835 25.8462 40.0572 27.0372 36.7177 29.2686C33.3781 31.5001 30.7752 34.6717 29.2381 38.3824C27.7011 42.0932 27.2989 46.1764 28.0825 50.1157C28.8661 54.055 30.8002 57.6735 33.6403 60.5136C36.4804 63.3536 40.0989 65.2878 44.0382 66.0713C47.9775 66.8549 52.0607 66.4528 55.7714 64.9157C59.4822 63.3787 62.6538 60.7758 64.8852 57.4362C67.1167 54.0966 68.3077 50.1703 68.3077 46.1539C68.3016 40.7698 66.1601 35.608 62.353 31.8009C58.5459 27.9938 53.3841 25.8523 48 25.8462ZM48 59.0769C45.4441 59.0769 42.9455 58.319 40.8203 56.899C38.6951 55.479 37.0387 53.4607 36.0606 51.0993C35.0825 48.7379 34.8266 46.1395 35.3252 43.6327C35.8239 41.1259 37.0547 38.8232 38.862 37.0159C40.6693 35.2085 42.972 33.9777 45.4788 33.4791C47.9857 32.9804 50.5841 33.2364 52.9454 34.2145C55.3068 35.1926 57.3251 36.849 58.7451 38.9742C60.1651 41.0994 60.9231 43.5979 60.9231 46.1539C60.9231 49.5813 59.5615 52.8683 57.138 55.2918C54.7145 57.7154 51.4274 59.0769 48 59.0769Z" fill="white"/>
</svg>
