<svg width="8" height="15" viewBox="0 0 8 15" fill="none" xmlns="http://www.w3.org/2000/svg">
<path id="Vector" d="M7.6625 0.943819C7.55644 0.836878 7.43024 0.751997 7.29121 0.694072C7.15217 0.636146 7.00304 0.606323 6.85242 0.606323C6.7018 0.606323 6.55267 0.636146 6.41363 0.694072C6.27459 0.751997 6.1484 0.836878 6.04233 0.943819L0.337496 6.64865C0.230555 6.75472 0.145674 6.88091 0.0877483 7.01995C0.0298229 7.15899 0 7.30812 0 7.45874C0 7.60936 0.0298229 7.75849 0.0877483 7.89753C0.145674 8.03657 0.230555 8.16276 0.337496 8.26883L6.04233 13.9737C6.1484 14.0806 6.27459 14.1655 6.41363 14.2234C6.55267 14.2813 6.7018 14.3112 6.85242 14.3112C7.00304 14.3112 7.15217 14.2813 7.29121 14.2234C7.43024 14.1655 7.55644 14.0806 7.6625 13.9737C7.76944 13.8676 7.85433 13.7414 7.91225 13.6024C7.97018 13.4633 8 13.3142 8 13.1636C8 13.013 7.97018 12.8638 7.91225 12.7248C7.85433 12.5857 7.76944 12.4596 7.6625 12.3535L2.75635 7.45874L5.20942 5.01137L7.6625 2.56399C7.76944 2.45792 7.85433 2.33173 7.91225 2.1927C7.97018 2.05366 8 1.90453 8 1.75391C8 1.60328 7.97018 1.45415 7.91225 1.31512C7.85433 1.17608 7.76944 1.04989 7.6625 0.943819Z" fill="white" fillOpacity="0.6"/>
</svg>
