<svg width="17" height="16" viewBox="0 0 17 16" fill="none" xmlns="http://www.w3.org/2000/svg">
<path id="Vector" d="M11.3663 0.194393L11.4522 0.270272L16.4804 5.29846C16.6345 5.4534 16.728 5.65842 16.744 5.87637C16.76 6.09431 16.6974 6.31077 16.5675 6.48653C16.4376 6.66228 16.2491 6.78569 16.036 6.8344C15.823 6.88312 15.5996 6.85391 15.4062 6.75207L12.5063 9.65105L11.2045 13.1223C11.1702 13.2139 11.1214 13.2994 11.06 13.3756L10.996 13.4487L9.6247 14.82C9.46716 14.9773 9.25766 15.0717 9.03548 15.0855C8.81331 15.0993 8.59373 15.0316 8.41794 14.895L8.33109 14.8191L5.77768 12.2666L2.31006 15.7333C2.14554 15.8973 1.92478 15.9925 1.69261 15.9996C1.46045 16.0067 1.23429 15.9251 1.06007 15.7715C0.885851 15.6179 0.776637 15.4037 0.754611 15.1725C0.732584 14.9413 0.799395 14.7103 0.941475 14.5266L1.01736 14.4406L4.48406 10.973L1.93157 8.4196C1.77417 8.26218 1.67961 8.05273 1.66564 7.83055C1.65167 7.60837 1.71924 7.38873 1.85569 7.21283L1.93157 7.1269L3.3029 5.75557C3.37188 5.68634 3.45151 5.62863 3.53876 5.58461L3.62836 5.54622L7.09872 4.24346L9.9977 1.34539C9.89885 1.16057 9.8665 0.947384 9.90609 0.741555C9.94568 0.535725 10.0548 0.349749 10.2151 0.214777C10.3755 0.0798045 10.5774 0.00403397 10.7869 0.000156551C10.9965 -0.00372086 11.201 0.0654447 11.3663 0.194393Z" fill="white" fillOpacity="0.6"/>
</svg>
