<svg width="100" height="79" viewBox="0 0 100 79" fill="none" xmlns="http://www.w3.org/2000/svg">
<g id="Group 37">
<rect id="Rectangle 23" width="100" height="78.8086" fill="#00E074"/>
<rect id="Rectangle 24" x="95" width="5" height="79" fill="#E8E8E8"/>
<g id="Group 44">
<path id="path168" d="M63.3162 40.9213L63.2212 40.9603L63.1262 40.9212L62.8796 40.8199L62.8333 40.8009L62.7979 40.7654L50.3507 28.3169L37.9034 40.7654L37.9034 40.7655C37.6697 40.9991 37.2902 40.9991 37.0566 40.7655C36.8223 40.5311 36.8209 40.1512 37.057 39.9169C37.0571 39.9167 37.0573 39.9165 37.0575 39.9164L49.9272 27.0466C50.156 26.8178 50.5456 26.8191 50.7745 27.0457L50.7754 27.0466L63.6439 39.9164C63.6441 39.9165 63.6442 39.9167 63.6443 39.9168C63.8805 40.1511 63.8791 40.5311 63.6448 40.7655L63.6093 40.8009L63.563 40.8199L63.3162 40.9213Z" fill="#101116" stroke="#101116" strokeWidth="0.5"/>
<path id="path170" d="M50.3008 27.5667L50.2699 27.5976L50.3472 27.5667H50.3008ZM50.4018 27.5667H50.3581L50.4317 27.5966L50.4018 27.5667ZM36.9632 39.8252L37.14 40.002L36.9632 39.8252L49.8352 26.9533C49.9776 26.8108 50.1724 26.75 50.3513 26.75C50.5303 26.75 50.725 26.8108 50.8674 26.9533L50.8674 26.9533L63.7368 39.8239C63.7371 39.8242 63.7374 39.8245 63.7377 39.8248C63.8758 39.9613 63.9526 40.1466 63.9526 40.3407C63.9526 40.5355 63.8753 40.7203 63.7381 40.8575C63.6012 40.9944 63.4178 41.072 63.2213 41.072C63.0263 41.072 62.8416 40.9946 62.7045 40.8575L62.7045 40.8575L50.352 28.5036L37.9967 40.8575C37.9967 40.8575 37.9967 40.8575 37.9967 40.8575C37.7177 41.1364 37.2422 41.1364 36.9632 40.8575C36.6789 40.5732 36.6789 40.1095 36.9632 39.8252Z" fill="#101116" stroke="#101116" strokeWidth="0.5"/>
<path id="path172" d="M59.7639 52.912H53.5533C53.2212 52.912 52.9539 52.6421 52.9539 52.3127V43.6506H47.7473V52.3127C47.7473 52.6421 47.4799 52.912 47.1479 52.912H40.9372C40.6052 52.912 40.3379 52.6421 40.3379 52.3127V37.1833C40.3379 36.8526 40.6065 36.5853 40.9372 36.5853C41.268 36.5853 41.5366 36.8526 41.5366 37.1833V51.7133H46.5473V43.0526C46.5473 42.72 46.8177 42.4533 47.1479 42.4533H53.5533C53.8834 42.4533 54.1539 42.72 54.1539 43.0526V51.7133H59.1646V37.1833C59.1646 36.852 59.4351 36.5853 59.7639 36.5853C60.0947 36.5853 60.3633 36.8526 60.3633 37.1833V52.3127C60.3633 52.6421 60.0959 52.912 59.7639 52.912Z" fill="#101116" stroke="#101116" strokeWidth="0.5"/>
<path id="path174" d="M47.3216 43.0936L47.3314 43.0839H47.1795V43.2343L47.191 43.223L47.3216 43.0936ZM53.5222 43.0839H53.3702L53.3791 43.0927L53.5111 43.222L53.5222 43.2329V43.0839ZM53.5963 52.1409L53.5862 52.1309V52.2813H53.738L53.7282 52.2715L53.5963 52.1409ZM59.5907 52.2716L59.5809 52.2813H59.7328V52.131L59.7227 52.141L59.5907 52.2716ZM47.1169 52.2813V52.1296L47.1054 52.141L46.9733 52.2716L46.9636 52.2813H47.1169ZM40.9688 52.2813H41.1206L41.11 52.2707L40.9794 52.14L40.9688 52.1295V52.2813ZM59.7655 53.0426H53.5535C53.1514 53.0426 52.8235 52.7146 52.8235 52.3126V43.7826H47.8782V52.3126C47.8782 52.7147 47.5502 53.0426 47.1481 53.0426H40.9375C40.5354 53.0426 40.2075 52.7146 40.2075 52.3126V37.1833C40.2075 36.7812 40.5354 36.4533 40.9375 36.4533C41.3413 36.4533 41.6675 36.7816 41.6675 37.1833V51.5826H46.4169V43.0526C46.4169 42.6492 46.7447 42.3213 47.1481 42.3213H53.5535C53.9569 42.3213 54.2849 42.6492 54.2849 43.0526V51.5826H59.0342V37.1833C59.0342 36.7808 59.3625 36.4533 59.7655 36.4533C60.1675 36.4533 60.4955 36.7811 60.4955 37.1833V52.3126C60.4955 52.7147 60.1675 53.0426 59.7655 53.0426Z" fill="#101116" stroke="#101116" strokeWidth="0.5"/>
</g>
</g>
</svg>
