<svg width="40" height="40" viewBox="0 0 40 40" fill="none" xmlns="http://www.w3.org/2000/svg">
<path d="M0 7C0 3.13401 3.13401 0 7 0H33C36.866 0 40 3.13401 40 7V33C40 36.866 36.866 40 33 40H7C3.13401 40 0 36.866 0 33V7Z" fill="#39445B" fillOpacity="0.2"/>
<path fill-rule="evenodd" clip-rule="evenodd" d="M25.8333 10.6667C26.7235 10.6667 27.4597 11.173 27.9987 11.705C28.5598 12.2568 29.0743 12.9988 29.5317 13.8167C30.4498 15.457 31.249 17.6002 31.7775 19.7177C32.3025 21.8188 32.593 24.0133 32.4075 25.7388C32.2208 27.4713 31.3283 29.3333 29.3333 29.3333C27.6113 29.3333 26.2393 28.4467 25.117 27.5472L24.7075 27.21L24.1335 26.7258L23.6155 26.2965C22.4267 25.334 21.3708 24.6667 20 24.6667C18.6292 24.6667 17.5733 25.334 16.3845 26.2965L15.8665 26.7258L15.2925 27.21L14.8842 27.5472C13.7595 28.4467 12.3875 29.3333 10.6667 29.3333C8.6705 29.3333 7.778 27.4713 7.5925 25.7388C7.40817 24.0122 7.6975 21.8188 8.2225 19.7177C8.751 17.6002 9.55017 15.457 10.4683 13.8155C10.9257 12.9988 11.4402 12.2568 12.0013 11.7038C12.5403 11.173 13.2765 10.6667 14.1667 10.6667C14.7675 10.6667 15.3543 10.8102 15.9318 10.9817L16.6225 11.1928C16.738 11.2278 16.8523 11.2628 16.9667 11.2943C17.9758 11.5837 19.0083 11.8333 20 11.8333C20.9917 11.8333 22.0242 11.5837 23.0333 11.2943L24.0658 10.9828C24.6468 10.8113 25.2383 10.6667 25.8333 10.6667ZM25.8333 13C25.3865 13 24.9198 13.1353 24.4672 13.2835L23.9328 13.4597C23.8473 13.4875 23.7614 13.5139 23.675 13.539C22.6425 13.833 21.3417 14.1667 20 14.1667C18.6583 14.1667 17.3575 13.833 16.325 13.539L16.0683 13.4597L15.5328 13.2835C15.0802 13.1342 14.6135 13 14.1667 13C13.679 13.091 13.2415 13.6825 12.9113 14.2308L12.727 14.5517L12.5053 14.9553C11.7097 16.3763 10.977 18.3153 10.487 20.2835C10.0262 22.1222 9.80217 23.8838 9.88734 25.1952L9.91767 25.537L9.941 25.7423L9.976 25.985C10.0565 26.4528 10.2303 27 10.6667 27C11.614 27 12.405 26.5287 13.3885 25.747L13.8587 25.3643L14.7453 24.6223L15.1467 24.2957C16.388 23.3122 17.9408 22.3333 20 22.3333C22.0592 22.3333 23.612 23.3133 24.8533 24.2957L25.2558 24.6223L26.1425 25.3643L26.6115 25.747C27.595 26.5287 28.3848 27 29.3333 27C29.73 27 29.9097 26.5485 29.9995 26.1145L30.0438 25.8602L30.087 25.4903C30.2305 24.1533 30.0088 22.2645 29.5142 20.2835C29.0638 18.4798 28.4105 16.6995 27.6918 15.3205L27.273 14.5505L27.0887 14.232C26.7585 13.6825 26.321 13.091 25.8333 13ZM15.9167 15.3333C16.6902 15.3333 17.4321 15.6406 17.9791 16.1876C18.526 16.7346 18.8333 17.4765 18.8333 18.25C18.8333 19.0235 18.526 19.7654 17.9791 20.3124C17.4321 20.8594 16.6902 21.1667 15.9167 21.1667C15.1431 21.1667 14.4013 20.8594 13.8543 20.3124C13.3073 19.7654 13 19.0235 13 18.25C13 17.4765 13.3073 16.7346 13.8543 16.1876C14.4013 15.6406 15.1431 15.3333 15.9167 15.3333ZM24.0833 15.3333C24.3691 15.3334 24.6449 15.4383 24.8584 15.6282C25.072 15.8181 25.2084 16.0797 25.2418 16.3635L25.25 16.5V17.0833H25.8333C26.1307 17.0837 26.4167 17.1975 26.6329 17.4017C26.8492 17.6058 26.9793 17.8848 26.9967 18.1816C27.0141 18.4785 26.9175 18.7708 26.7267 18.9988C26.5358 19.2268 26.2651 19.3734 25.9698 19.4085L25.8333 19.4167H25.25V20C25.2497 20.2974 25.1358 20.5834 24.9317 20.7996C24.7275 21.0158 24.4486 21.1459 24.1517 21.1634C23.8549 21.1808 23.5626 21.0842 23.3345 20.8934C23.1065 20.7025 22.96 20.4318 22.9248 20.1365L22.9167 20V19.4167H22.3333C22.036 19.4163 21.75 19.3025 21.5337 19.0983C21.3175 18.8942 21.1874 18.6152 21.17 18.3184C21.1525 18.0215 21.2491 17.7292 21.44 17.5012C21.6308 17.2732 21.9016 17.1266 22.1968 17.0915L22.3333 17.0833H22.9167V16.5C22.9167 16.1906 23.0396 15.8938 23.2584 15.675C23.4772 15.4562 23.7739 15.3333 24.0833 15.3333ZM15.9167 17.6667C15.762 17.6667 15.6136 17.7281 15.5042 17.8375C15.3948 17.9469 15.3333 18.0953 15.3333 18.25C15.3333 18.4047 15.3948 18.5531 15.5042 18.6625C15.6136 18.7719 15.762 18.8333 15.9167 18.8333C16.0714 18.8333 16.2198 18.7719 16.3291 18.6625C16.4385 18.5531 16.5 18.4047 16.5 18.25C16.5 18.0953 16.4385 17.9469 16.3291 17.8375C16.2198 17.7281 16.0714 17.6667 15.9167 17.6667Z" fill="white"/>
</svg>
