<svg width="61" height="61" viewBox="0 0 61 61" fill="none" xmlns="http://www.w3.org/2000/svg">
<g id="MAIL">
<rect id="Rectangle 10" x="0.5" y="0.5" width="60" height="60" rx="21.5" stroke="#212836"/>
<g id="ICON MAIL">
<g id="Group 43">
<path id="path16" d="M17.0767 39.8374H42.8278V21.3594H17.0767V39.8374ZM43.4778 41.1373H16.4267C16.066 41.1373 15.7767 40.844 15.7767 40.4859V20.7109C15.7767 20.3507 16.0667 20.0595 16.4267 20.0595H43.4778C43.8379 20.0595 44.1278 20.3507 44.1278 20.7109V40.4859C44.1278 40.844 43.8386 41.1373 43.4778 41.1373Z" fill="#646872" stroke="#646872" strokeWidth="0.542237"/>
<path id="path18" d="M43.2909 40.4418L43.2794 40.4533H43.444V40.2886L43.4325 40.3001L43.2909 40.4418ZM43.4325 20.8965L43.444 20.908V20.7448H43.2808L43.2909 20.7548L43.4325 20.8965ZM16.6141 20.7548L16.624 20.7448H16.4608V20.908L16.4723 20.8965L16.6141 20.7548ZM16.4608 40.2887V40.4533H16.6255L16.6141 40.4419L16.4723 40.3002L16.4608 40.2887ZM17.2185 39.6942H42.6862V21.5025H17.2185V39.6942ZM43.4794 41.2789H16.4269C15.989 41.2789 15.6351 40.9243 15.6351 40.4858V20.7108C15.6351 20.2742 15.9885 19.9177 16.4269 19.9177H43.4794C43.916 19.9177 44.271 20.2738 44.271 20.7108V40.4858C44.271 40.9247 43.9155 41.2789 43.4794 41.2789Z" fill="#646872" stroke="#646872" strokeWidth="0.542237"/>
<path id="path20" d="M30.0514 33.8382L29.9522 33.8773L29.8529 33.8383L29.5955 33.737L29.5481 33.7184L29.5107 33.6839L15.9852 21.1879L15.9852 21.1879L15.9841 21.1869C15.7242 20.9441 15.703 20.533 15.9488 20.2691C16.1941 20.0045 16.6032 19.9905 16.867 20.2321L16.8679 20.2329L29.9522 32.3218L43.0362 20.2329C43.0363 20.2329 43.0363 20.2329 43.0363 20.2329C43.2992 19.9899 43.7101 20.005 43.9549 20.2687C44.2012 20.5325 44.1801 20.9439 43.92 21.1869L43.919 21.1879L30.3934 33.6839L30.356 33.7184L30.3087 33.737L30.0514 33.8382Z" fill="#646872" stroke="#646872" strokeWidth="0.542237"/>
<path id="path22" d="M43.5093 19.9181C43.7179 19.9268 43.9163 20.0161 44.0602 20.1743L30.4904 33.7879C30.3437 33.9235 30.1524 33.9987 29.9537 33.9987C29.7517 33.9987 29.5626 33.9233 29.4153 33.7891L29.4153 33.7891L29.414 33.7879L15.8885 21.2919L15.8884 21.2918C15.5665 20.9942 15.55 20.4934 15.8438 20.1734C15.9869 20.0171 16.1837 19.9269 16.3937 19.9181L16.4008 19.9178L16.4079 19.9179C16.5946 19.9199 16.8024 19.9798 16.9641 20.1278L16.965 20.1287L29.9537 32.1279L42.9405 20.1291L43.125 20.3278L42.941 20.1287L42.9409 20.1287C43.0989 19.9822 43.2978 19.9179 43.498 19.9179V19.9176L43.5093 19.9181ZM44.016 21.2919L30.4906 33.7877L43.9983 20.7298L44.2692 20.741C44.2692 20.741 44.2692 20.7411 44.2692 20.7412C44.2604 20.9522 44.1705 21.1484 44.0165 21.2914L44.016 21.2919ZM30.0066 33.108L30.052 33.066H30.0492H29.8568H29.8524L29.8978 33.108H30.0066Z" fill="#646872" stroke="#646872" strokeWidth="0.542237"/>
</g>
</g>
</g>
</svg>
