<svg width="40" height="40" viewBox="0 0 40 40" fill="none" xmlns="http://www.w3.org/2000/svg">
<path d="M0 7C0 3.13401 3.13401 0 7 0H33C36.866 0 40 3.13401 40 7V33C40 36.866 36.866 40 33 40H7C3.13401 40 0 36.866 0 33V7Z" fill="#39445B" fillOpacity="0.2"/>
<path d="M19.5988 30C18.0819 30 16.7943 29.7531 15.736 29.2592C14.6777 28.7477 13.8663 28.0333 13.3018 27.1161C12.755 26.1812 12.4816 25.0876 12.4816 23.8353H14.8629C14.8629 24.435 15.004 25.0435 15.2862 25.6609C15.586 26.2782 16.0799 26.7986 16.7678 27.2219C17.4557 27.6276 18.3994 27.8304 19.5988 27.8304C21.1863 27.8304 22.3593 27.4953 23.1178 26.825C23.8939 26.1548 24.2819 25.3875 24.2819 24.5232C24.2819 23.6765 23.9379 22.971 23.25 22.4066C22.5621 21.8421 21.5655 21.4982 20.2603 21.3747L18.5141 21.216C16.8208 21.0572 15.4714 20.5457 14.466 19.6814C13.4606 18.8171 12.9579 17.5824 12.9579 15.9773C12.9579 14.866 13.2225 13.9224 13.7516 13.1463C14.2984 12.3525 15.0569 11.744 16.027 11.3207C17.0148 10.8973 18.1701 10.6857 19.493 10.6857C20.8159 10.6857 21.9536 10.9238 22.9061 11.4C23.8762 11.8587 24.6259 12.5377 25.155 13.4373C25.6842 14.3192 25.9488 15.3864 25.9488 16.6387H23.5675C23.5675 16.0037 23.4264 15.404 23.1442 14.8396C22.862 14.2575 22.421 13.7813 21.8213 13.4109C21.2392 13.0404 20.4631 12.8552 19.493 12.8552C18.6287 12.8552 17.8879 12.9963 17.2705 13.2786C16.6708 13.5431 16.2034 13.9136 15.8683 14.3898C15.5508 14.866 15.392 15.3952 15.392 15.9773C15.392 16.7357 15.6654 17.3972 16.2122 17.9616C16.759 18.5084 17.5969 18.8347 18.7257 18.9406L20.472 19.0993C22.3593 19.2757 23.8674 19.8313 24.9963 20.7662C26.1428 21.6834 26.716 22.9357 26.716 24.5232C26.716 25.6168 26.425 26.5781 25.8429 27.4071C25.2608 28.2185 24.4406 28.8535 23.3823 29.3121C22.324 29.7707 21.0628 30 19.5988 30ZM18.4611 33.4131V29.5502H20.7365V33.4131H18.4611ZM18.3553 11.9821V8.11926H20.6307V11.9821H18.3553Z" fill="white"/>
</svg>
