<svg width="9" height="11" viewBox="0 0 9 11" fill="none" xmlns="http://www.w3.org/2000/svg">
<g id="Group 78" opacity="0.6">
<path id="path364" d="M1.35461 10.6784L1.34161 10.681L1.32913 10.6765L1.23962 10.6445L1.22345 10.6388L1.21463 10.624L1.13797 10.4962L1.13197 10.4862L1.13124 10.4746L1.00977 8.53774L1.00931 8.53032L1.01111 8.5231L1.0367 8.42077L1.03864 8.41302L1.04299 8.40631L5.773 1.11326L5.77335 1.11274C5.83839 1.01526 5.96914 0.982214 6.07483 1.04734L6.07483 1.04733L6.07578 1.04794L8.00615 2.30089L8.01413 2.30606L8.01952 2.31389L8.08987 2.41597L8.10062 2.43157L8.09781 2.4503L8.07858 2.57814L8.07704 2.58839L8.0714 2.59708L3.34139 9.89665L3.33691 9.90356L3.33039 9.90858L3.2473 9.9725L3.24862 9.9742L3.23503 9.97934L1.42613 10.6635L1.42636 10.6641L1.41853 10.6656L1.35461 10.6784ZM6.01912 1.52526L1.4452 8.57951L1.54254 10.1548L3.02029 9.60125L7.59416 2.54699L6.01912 1.52526Z" fill="white" stroke="white" strokeWidth="0.0958788"/>
<path id="path366" d="M1.34261 10.7376L1.35244 10.7361L1.43553 10.7234L1.44554 10.7219L1.44517 10.7209L3.2605 10.037L3.26792 10.0342L3.27405 10.0292L3.38272 9.9398L3.38846 9.93508L3.3925 9.92885L8.12252 2.63555L8.12427 2.63284L8.12418 2.63279C8.16009 2.56829 8.17697 2.4987 8.16116 2.42704M1.34261 10.7376L8.11425 2.43695M1.34261 10.7376L1.33299 10.7351L1.21152 10.7031L1.20326 10.7009L1.19625 10.6961C1.12183 10.644 1.07515 10.5678 1.06736 10.4821L1.06734 10.4821L1.06725 10.4806L0.952145 8.54407L0.950169 8.54419L0.95325 8.53062L0.985209 8.3898L0.987095 8.38149L0.991728 8.37434L5.72133 1.07544M1.34261 10.7376L5.72133 1.07544M8.16116 2.42704C8.16112 2.42687 8.16108 2.4267 8.16105 2.42653L8.11425 2.43695M8.16116 2.42704C8.16119 2.42721 8.16123 2.42738 8.16126 2.42755L8.11425 2.43695M8.16116 2.42704C8.14555 2.34974 8.09901 2.28789 8.03774 2.24946L8.03805 2.24966L8.01195 2.28987M8.11425 2.43695C8.10147 2.37303 8.06308 2.32183 8.01195 2.28987M8.01195 2.28987L8.03735 2.24922M8.01195 2.28987L8.03735 2.24922M8.03735 2.24922L6.10767 0.996716L6.10699 0.996269C6.04628 0.958335 5.96983 0.942546 5.89907 0.958075C5.82505 0.973263 5.76163 1.01116 5.72154 1.0751L5.72175 1.07478L5.76198 1.10085M8.03735 2.24922L6.08157 1.03693C6.03044 1.00497 5.96657 0.992248 5.90904 1.00497C5.84512 1.01801 5.79394 1.04971 5.76198 1.10085M5.76198 1.10085L5.72133 1.07544M5.76198 1.10085L1.03196 8.40041M1.03196 8.40041L1 8.54123L1.03196 8.40041ZM1.03196 8.40041L5.72133 1.07544M3.19257 9.68156L3.2545 9.73724L7.93434 2.5213L7.94246 2.47266L7.91323 2.42685L5.99251 1.18427L5.94939 1.17474L5.90579 1.20521L1.1842 8.49171L1.1699 8.53479L1.29013 10.4515L1.31825 10.5039L1.37788 10.5118L3.11245 9.85833L3.0627 9.80857L3.02695 9.77282L3.04007 9.76103L1.54119 10.3311L1.53296 10.3342H1.52415H1.49862V10.3352L1.48904 10.3333L1.45708 10.3267L1.4369 10.3226L1.42599 10.3052L1.39403 10.254L1.3876 10.2436L1.38685 10.2315L1.28454 8.57614L1.28397 8.56687L1.2869 8.55806L1.2997 8.51958L1.29819 8.51908L1.30496 8.50863L5.91351 1.40088L5.92405 1.38462L5.94293 1.38026L6.02607 1.36101L6.04582 1.35644L6.06286 1.36743L7.71833 2.43482L7.72816 2.44116L7.73396 2.45131L7.75956 2.49605L7.76773 2.51034L7.7654 2.52664L7.75897 2.57158L7.75748 2.58202L7.75174 2.59087L3.16836 9.6598L3.19257 9.68156ZM6.03822 1.6146L1.50906 8.59872L1.59995 10.0651L2.97547 9.55002L7.50464 2.56619L6.03822 1.6146Z" fill="white" stroke="white" strokeWidth="0.0958788"/>
</g>
</svg>
