<svg width="11" height="13" viewBox="0 0 11 13" fill="none" xmlns="http://www.w3.org/2000/svg">
<g id="Group 77">
<g id="Union">
<mask id="path-1-outside-1_1006_10185" maskUnits="userSpaceOnUse" x="0" y="0" width="11" height="13" fill="black">
<rect fill="white" width="11" height="13"/>
<path fill-rule="evenodd" clip-rule="evenodd" d="M1.4145 7.68359C1.4145 7.05785 1.86782 6.52874 2.47958 6.42866V8.93854C1.86782 8.83847 1.4145 8.30991 1.4145 7.68359ZM8.62313 8.93854V6.42866C9.23443 6.52874 9.68804 7.05785 9.68804 7.68359C9.68804 8.30991 9.23443 8.83847 8.62313 8.93854ZM2.89408 6.22161C2.89408 6.04792 3.03562 5.90588 3.20954 5.90588C3.38363 5.90588 3.52517 6.04792 3.52517 6.22161V9.10358C3.52517 9.27785 3.38363 9.41934 3.20954 9.41934C3.03562 9.41934 2.89408 9.27785 2.89408 9.10358V6.22161ZM7.57737 6.22161C7.57737 6.04792 7.71891 5.90588 7.893 5.90588C8.06692 5.90588 8.20863 6.04792 8.20863 6.22161V9.10358C8.20863 9.27785 8.06692 9.41934 7.893 9.41934C7.71891 9.41934 7.57737 9.27785 7.57737 9.10358V6.22161ZM6.56773 10.4638C6.56773 10.37 6.64387 10.2941 6.73733 10.2941C6.83102 10.2941 6.90676 10.37 6.90676 10.4638C6.90676 10.557 6.83102 10.6329 6.73733 10.6329C6.64387 10.6329 6.56773 10.557 6.56773 10.4638ZM7.77619 11.8947C7.86355 11.912 7.95477 11.9206 8.04782 11.9206C8.53507 11.9206 8.99225 11.6836 9.22949 11.4495C9.50158 11.1798 9.65773 10.8019 9.65773 10.412V8.84306L9.65635 8.82408C9.94415 8.51063 10.1025 8.10746 10.1025 7.68359C10.1025 7.0521 9.73951 6.46604 9.17468 6.17963V4.82001C9.17468 2.71388 7.54907 1 5.55112 1C3.55347 1 1.92803 2.71388 1.92803 4.82001V6.17963C1.36302 6.46547 1 7.0521 1 7.68359C1 8.55204 1.66899 9.28189 2.52991 9.36183C2.63728 9.64537 2.90621 9.83401 3.20954 9.83401C3.61213 9.83401 3.93967 9.50618 3.93967 9.10358V6.22161C3.93967 5.8196 3.61213 5.49178 3.20954 5.49178C2.88844 5.49178 2.60789 5.7017 2.51397 6.00709C2.45732 6.01284 2.40004 6.02206 2.34253 6.03413V4.82001C2.34253 2.94221 3.78174 1.41467 5.55112 1.41467C7.3208 1.41467 8.76018 2.94221 8.76018 4.82001V6.03413C8.70267 6.02206 8.64515 6.01284 8.58879 6.00709C8.49464 5.7017 8.21404 5.49178 7.893 5.49178C7.49041 5.49178 7.16287 5.8196 7.16287 6.22161V9.10358C7.16287 9.50618 7.49041 9.83401 7.893 9.83401C8.1965 9.83401 8.46497 9.64537 8.57263 9.36183C8.80849 9.33998 9.03785 9.26809 9.24323 9.15191V10.412C9.24323 10.6921 9.132 10.9624 8.93813 11.1545C8.71411 11.3759 8.25786 11.568 7.85682 11.4881C7.55419 11.4277 7.31695 11.2206 7.1516 10.8721C7.26013 10.7623 7.32126 10.6156 7.32126 10.4638C7.32126 10.1417 7.05929 9.87945 6.73733 9.87945C6.41543 9.87945 6.15323 10.1417 6.15323 10.4638C6.15323 10.7853 6.41543 11.0475 6.73733 11.0475L6.77466 11.0452C7.05388 11.637 7.47177 11.8343 7.77619 11.8947Z"/>
</mask>
<path fill-rule="evenodd" clip-rule="evenodd" d="M1.4145 7.68359C1.4145 7.05785 1.86782 6.52874 2.47958 6.42866V8.93854C1.86782 8.83847 1.4145 8.30991 1.4145 7.68359ZM8.62313 8.93854V6.42866C9.23443 6.52874 9.68804 7.05785 9.68804 7.68359C9.68804 8.30991 9.23443 8.83847 8.62313 8.93854ZM2.89408 6.22161C2.89408 6.04792 3.03562 5.90588 3.20954 5.90588C3.38363 5.90588 3.52517 6.04792 3.52517 6.22161V9.10358C3.52517 9.27785 3.38363 9.41934 3.20954 9.41934C3.03562 9.41934 2.89408 9.27785 2.89408 9.10358V6.22161ZM7.57737 6.22161C7.57737 6.04792 7.71891 5.90588 7.893 5.90588C8.06692 5.90588 8.20863 6.04792 8.20863 6.22161V9.10358C8.20863 9.27785 8.06692 9.41934 7.893 9.41934C7.71891 9.41934 7.57737 9.27785 7.57737 9.10358V6.22161ZM6.56773 10.4638C6.56773 10.37 6.64387 10.2941 6.73733 10.2941C6.83102 10.2941 6.90676 10.37 6.90676 10.4638C6.90676 10.557 6.83102 10.6329 6.73733 10.6329C6.64387 10.6329 6.56773 10.557 6.56773 10.4638ZM7.77619 11.8947C7.86355 11.912 7.95477 11.9206 8.04782 11.9206C8.53507 11.9206 8.99225 11.6836 9.22949 11.4495C9.50158 11.1798 9.65773 10.8019 9.65773 10.412V8.84306L9.65635 8.82408C9.94415 8.51063 10.1025 8.10746 10.1025 7.68359C10.1025 7.0521 9.73951 6.46604 9.17468 6.17963V4.82001C9.17468 2.71388 7.54907 1 5.55112 1C3.55347 1 1.92803 2.71388 1.92803 4.82001V6.17963C1.36302 6.46547 1 7.0521 1 7.68359C1 8.55204 1.66899 9.28189 2.52991 9.36183C2.63728 9.64537 2.90621 9.83401 3.20954 9.83401C3.61213 9.83401 3.93967 9.50618 3.93967 9.10358V6.22161C3.93967 5.8196 3.61213 5.49178 3.20954 5.49178C2.88844 5.49178 2.60789 5.7017 2.51397 6.00709C2.45732 6.01284 2.40004 6.02206 2.34253 6.03413V4.82001C2.34253 2.94221 3.78174 1.41467 5.55112 1.41467C7.3208 1.41467 8.76018 2.94221 8.76018 4.82001V6.03413C8.70267 6.02206 8.64515 6.01284 8.58879 6.00709C8.49464 5.7017 8.21404 5.49178 7.893 5.49178C7.49041 5.49178 7.16287 5.8196 7.16287 6.22161V9.10358C7.16287 9.50618 7.49041 9.83401 7.893 9.83401C8.1965 9.83401 8.46497 9.64537 8.57263 9.36183C8.80849 9.33998 9.03785 9.26809 9.24323 9.15191V10.412C9.24323 10.6921 9.132 10.9624 8.93813 11.1545C8.71411 11.3759 8.25786 11.568 7.85682 11.4881C7.55419 11.4277 7.31695 11.2206 7.1516 10.8721C7.26013 10.7623 7.32126 10.6156 7.32126 10.4638C7.32126 10.1417 7.05929 9.87945 6.73733 9.87945C6.41543 9.87945 6.15323 10.1417 6.15323 10.4638C6.15323 10.7853 6.41543 11.0475 6.73733 11.0475L6.77466 11.0452C7.05388 11.637 7.47177 11.8343 7.77619 11.8947Z" fill="#101116"/>
<path d="M2.47958 6.42866H2.60899V6.27637L2.45869 6.30096L2.47958 6.42866ZM2.47958 8.93854L2.45869 9.06625L2.60899 9.09083V8.93854H2.47958ZM8.62313 6.42866L8.64403 6.30096L8.49372 6.27635V6.42866H8.62313ZM8.62313 8.93854H8.49372V9.09085L8.64403 9.06625L8.62313 8.93854ZM7.77619 11.8947L7.75101 12.0216L7.75112 12.0217L7.77619 11.8947ZM9.22949 11.4495L9.32037 11.5417L9.32059 11.5414L9.22949 11.4495ZM9.65773 8.84306H9.78747L9.78679 8.83368L9.65773 8.84306ZM9.65635 8.82408L9.56103 8.73656L9.52323 8.77772L9.52729 8.83346L9.65635 8.82408ZM9.17468 6.17963H9.04527V6.2591L9.11615 6.29504L9.17468 6.17963ZM1.92803 6.17963L1.98645 6.2951L2.05744 6.25918V6.17963H1.92803ZM2.52991 9.36183L2.65092 9.316L2.62231 9.24045L2.54187 9.23298L2.52991 9.36183ZM2.51397 6.00709L2.52704 6.13583L2.61243 6.12716L2.63766 6.04513L2.51397 6.00709ZM2.34253 6.03413H2.21312V6.19353L2.36912 6.16078L2.34253 6.03413ZM8.76018 6.03413L8.73359 6.16078L8.88959 6.19353V6.03413H8.76018ZM8.58879 6.00709L8.46513 6.04521L8.49038 6.12712L8.57566 6.13583L8.58879 6.00709ZM8.57263 9.36183L8.56069 9.23298L8.48031 9.24043L8.45165 9.31589L8.57263 9.36183ZM9.24323 9.15191H9.37264V8.93004L9.17952 9.03928L9.24323 9.15191ZM8.93813 11.1545L9.0291 11.2465L9.02921 11.2464L8.93813 11.1545ZM7.85682 11.4881L7.8315 11.615L7.83153 11.615L7.85682 11.4881ZM7.1516 10.8721L7.05954 10.7812L6.99582 10.8457L7.03468 10.9276L7.1516 10.8721ZM6.73733 11.0475V11.1772L6.7453 11.1767L6.73733 11.0475ZM6.77466 11.0452L6.89169 10.99L6.85425 10.9107L6.76669 10.9161L6.77466 11.0452ZM2.45869 6.30096C1.78453 6.41124 1.28509 6.99426 1.28509 7.68359H1.5439C1.5439 7.12144 1.9511 6.64624 2.50047 6.55637L2.45869 6.30096ZM2.60899 8.93854V6.42866H2.35018V8.93854H2.60899ZM1.28509 7.68359C1.28509 8.37353 1.78456 8.95598 2.45869 9.06625L2.50047 8.81084C1.95107 8.72096 1.5439 8.24629 1.5439 7.68359H1.28509ZM8.49372 6.42866V8.93854H8.75253V6.42866H8.49372ZM9.81744 7.68359C9.81744 6.99424 9.3177 6.41124 8.64403 6.30096L8.60222 6.55637C9.15117 6.64623 9.55863 7.12145 9.55863 7.68359H9.81744ZM8.64403 9.06625C9.31767 8.95597 9.81744 8.37354 9.81744 7.68359H9.55863C9.55863 8.24627 9.1512 8.72097 8.60222 8.81084L8.64403 9.06625ZM3.20954 5.77648C2.96394 5.77648 2.76467 5.97666 2.76467 6.22161H3.02348C3.02348 6.11918 3.10729 6.03528 3.20954 6.03528V5.77648ZM3.65457 6.22161C3.65457 5.97662 3.45526 5.77648 3.20954 5.77648V6.03528C3.312 6.03528 3.39576 6.11923 3.39576 6.22161H3.65457ZM3.65457 9.10358V6.22161H3.39576V9.10358H3.65457ZM3.20954 9.54875C3.45512 9.54875 3.65457 9.34929 3.65457 9.10358H3.39576C3.39576 9.2064 3.31214 9.28994 3.20954 9.28994V9.54875ZM2.76467 9.10358C2.76467 9.34925 2.96408 9.54875 3.20954 9.54875V9.28994C3.10715 9.28994 3.02348 9.20645 3.02348 9.10358H2.76467ZM2.76467 6.22161V9.10358H3.02348V6.22161H2.76467ZM7.893 5.77648C7.64728 5.77648 7.44796 5.97662 7.44796 6.22161H7.70677C7.70677 6.11923 7.79054 6.03528 7.893 6.03528V5.77648ZM8.33804 6.22161C8.33804 5.97657 8.1385 5.77648 7.893 5.77648V6.03528C7.99534 6.03528 8.07923 6.11928 8.07923 6.22161H8.33804ZM8.33804 9.10358V6.22161H8.07923V9.10358H8.33804ZM7.893 9.54875C8.13836 9.54875 8.33804 9.34934 8.33804 9.10358H8.07923C8.07923 9.20636 7.99547 9.28994 7.893 9.28994V9.54875ZM7.44796 9.10358C7.44796 9.34929 7.64742 9.54875 7.893 9.54875V9.28994C7.7904 9.28994 7.70677 9.2064 7.70677 9.10358H7.44796ZM7.44796 6.22161V9.10358H7.70677V6.22161H7.44796ZM6.73733 10.1647C6.57248 10.1647 6.43832 10.2985 6.43832 10.4638H6.69713C6.69713 10.4416 6.71527 10.4235 6.73733 10.4235V10.1647ZM7.03617 10.4638C7.03617 10.2988 6.9027 10.1647 6.73733 10.1647V10.4235C6.75934 10.4235 6.77736 10.4413 6.77736 10.4638H7.03617ZM6.73733 10.7623C6.9024 10.7623 7.03617 10.6285 7.03617 10.4638H6.77736C6.77736 10.4854 6.75964 10.5035 6.73733 10.5035V10.7623ZM6.43832 10.4638C6.43832 10.6288 6.57278 10.7623 6.73733 10.7623V10.5035C6.71497 10.5035 6.69713 10.4851 6.69713 10.4638H6.43832ZM8.04782 11.7912C7.9627 11.7912 7.8799 11.7833 7.80126 11.7678L7.75112 12.0217C7.8472 12.0406 7.94684 12.05 8.04782 12.05V11.7912ZM9.1386 11.3574C8.92307 11.5701 8.49769 11.7912 8.04782 11.7912V12.05C8.57245 12.05 9.06142 11.7972 9.32037 11.5417L9.1386 11.3574ZM9.52833 10.412C9.52833 10.7681 9.38553 11.1126 9.13838 11.3576L9.32059 11.5414C9.61764 11.247 9.78713 10.8358 9.78713 10.412H9.52833ZM9.52833 8.84306V10.412H9.78713V8.84306H9.52833ZM9.52729 8.83346L9.52867 8.85244L9.78679 8.83368L9.78541 8.8147L9.52729 8.83346ZM9.97313 7.68359C9.97313 8.0747 9.82714 8.44673 9.56103 8.73656L9.75167 8.9116C10.0611 8.57454 10.2319 8.14023 10.2319 7.68359H9.97313ZM9.11615 6.29504C9.63797 6.55964 9.97313 7.10136 9.97313 7.68359H10.2319C10.2319 7.00283 9.84106 6.37245 9.2332 6.06421L9.11615 6.29504ZM9.04527 4.82001V6.17963H9.30408V4.82001H9.04527ZM5.55112 1.1294C7.47125 1.1294 9.04527 2.77883 9.04527 4.82001H9.30408C9.30408 2.64894 7.62689 0.870596 5.55112 0.870596V1.1294ZM2.05744 4.82001C2.05744 2.77881 3.6313 1.1294 5.55112 1.1294V0.870596C3.47563 0.870596 1.79863 2.64896 1.79863 4.82001H2.05744ZM2.05744 6.17963V4.82001H1.79863V6.17963H2.05744ZM1.1294 7.68359C1.1294 7.1013 1.46462 6.55909 1.98645 6.2951L1.86962 6.06416C1.26143 6.37184 0.870596 7.00289 0.870596 7.68359H1.1294ZM2.54187 9.23298C1.74729 9.1592 1.1294 8.48499 1.1294 7.68359H0.870596C0.870596 8.61908 1.5907 9.40458 2.51794 9.49068L2.54187 9.23298ZM3.20954 9.70461C2.96086 9.70461 2.73955 9.55004 2.65092 9.316L2.40889 9.40766C2.53501 9.7407 2.85157 9.96342 3.20954 9.96342V9.70461ZM3.81026 9.10358C3.81026 9.43478 3.54059 9.70461 3.20954 9.70461V9.96342C3.68367 9.96342 4.06907 9.57757 4.06907 9.10358H3.81026ZM3.81026 6.22161V9.10358H4.06907V6.22161H3.81026ZM3.20954 5.62118C3.54066 5.62118 3.81026 5.89107 3.81026 6.22161H4.06907C4.06907 5.74813 3.6836 5.36237 3.20954 5.36237V5.62118ZM2.63766 6.04513C2.71505 5.79347 2.94585 5.62118 3.20954 5.62118V5.36237C2.83103 5.36237 2.50073 5.60992 2.39029 5.96905L2.63766 6.04513ZM2.36912 6.16078C2.42271 6.14952 2.47546 6.14107 2.52704 6.13583L2.5009 5.87835C2.43919 5.88461 2.37737 5.89459 2.31593 5.90749L2.36912 6.16078ZM2.21312 4.82001V6.03413H2.47193V4.82001H2.21312ZM5.55112 1.28526C3.70312 1.28526 2.21312 2.87811 2.21312 4.82001H2.47193C2.47193 3.00631 3.86035 1.54407 5.55112 1.54407V1.28526ZM8.88959 4.82001C8.88959 2.87809 7.3994 1.28526 5.55112 1.28526V1.54407C7.2422 1.54407 8.63078 3.00633 8.63078 4.82001H8.88959ZM8.88959 6.03413V4.82001H8.63078V6.03413H8.88959ZM8.57566 6.13583C8.62704 6.14107 8.68004 6.14953 8.73359 6.16078L8.78677 5.90749C8.72529 5.89458 8.66327 5.88461 8.60193 5.87835L8.57566 6.13583ZM7.893 5.62118C8.15662 5.62118 8.38752 5.79347 8.46513 6.04521L8.71245 5.96897C8.60176 5.60992 8.27146 5.36237 7.893 5.36237V5.62118ZM7.29227 6.22161C7.29227 5.89107 7.56187 5.62118 7.893 5.62118V5.36237C7.41894 5.36237 7.03347 5.74813 7.03347 6.22161H7.29227ZM7.29227 9.10358V6.22161H7.03347V9.10358H7.29227ZM7.893 9.70461C7.56194 9.70461 7.29227 9.43478 7.29227 9.10358H7.03347C7.03347 9.57757 7.41887 9.96342 7.893 9.96342V9.70461ZM8.45165 9.31589C8.36271 9.55012 8.14176 9.70461 7.893 9.70461V9.96342C8.25124 9.96342 8.56722 9.74062 8.69361 9.40777L8.45165 9.31589ZM9.17952 9.03928C8.99008 9.14644 8.77837 9.21281 8.56069 9.23298L8.58457 9.49068C8.83862 9.46714 9.08563 9.38974 9.30695 9.26455L9.17952 9.03928ZM9.37264 10.412V9.15191H9.11383V10.412H9.37264ZM9.02921 11.2464C9.24827 11.0294 9.37264 10.7257 9.37264 10.412H9.11383C9.11383 10.6585 9.01574 10.8954 8.84705 11.0626L9.02921 11.2464ZM7.83153 11.615C8.05985 11.6605 8.29783 11.6278 8.50572 11.5568C8.71323 11.4858 8.90104 11.3731 9.0291 11.2465L8.84716 11.0625C8.7512 11.1573 8.59887 11.2514 8.422 11.3119C8.2455 11.3722 8.05483 11.3956 7.88212 11.3612L7.83153 11.615ZM7.03468 10.9276C7.21272 11.3029 7.47885 11.5446 7.8315 11.615L7.88215 11.3612C7.62953 11.3108 7.42117 11.1384 7.26851 10.8166L7.03468 10.9276ZM7.19186 10.4638C7.19186 10.5807 7.14473 10.6949 7.05954 10.7812L7.24365 10.9631C7.37552 10.8296 7.45067 10.6505 7.45067 10.4638H7.19186ZM6.73733 10.0089C6.98772 10.0089 7.19186 10.2131 7.19186 10.4638H7.45067C7.45067 10.0704 7.13086 9.75004 6.73733 9.75004V10.0089ZM6.28263 10.4638C6.28263 10.2131 6.48694 10.0089 6.73733 10.0089V9.75004C6.34392 9.75004 6.02382 10.0703 6.02382 10.4638H6.28263ZM6.73733 10.9181C6.48686 10.9181 6.28263 10.7138 6.28263 10.4638H6.02382C6.02382 10.8568 6.34401 11.1769 6.73733 11.1769V10.9181ZM6.76669 10.9161L6.72936 10.9184L6.7453 11.1767L6.78262 11.1744L6.76669 10.9161ZM7.80137 11.7678C7.53186 11.7143 7.1512 11.54 6.89169 10.99L6.65762 11.1005C6.95657 11.7341 7.41168 11.9543 7.75101 12.0216L7.80137 11.7678Z" fill="#101116" mask="url(#path-1-outside-1_1006_10185)"/>
</g>
</g>
</svg>
