<svg width="60" height="60" viewBox="0 0 60 60" fill="none" xmlns="http://www.w3.org/2000/svg">
<g id="Group 59">
<rect x="6" y="6.24922" width="48" height="48" rx="15" fill="#39445B" fillOpacity="0.2" shapeRendering="crispEdges"/>
<rect x="6.34375" y="6.59297" width="47.3125" height="47.3125" rx="14.6562" stroke="#39445B" strokeWidth="0.6875" shapeRendering="crispEdges"/>
<path id="Vector" fill-rule="evenodd" clip-rule="evenodd" d="M39.5612 23.6817C39.8427 23.9633 40.0008 24.3452 40.0008 24.7433C40.0008 25.1415 39.8427 25.5234 39.5612 25.805L28.3061 37.0601C28.1574 37.2088 27.9808 37.3268 27.7864 37.4074C27.5921 37.4879 27.3838 37.5293 27.1734 37.5293C26.963 37.5293 26.7547 37.4879 26.5603 37.4074C26.366 37.3268 26.1894 37.2088 26.0407 37.0601L20.4487 31.4691C20.3052 31.3305 20.1908 31.1648 20.1121 30.9816C20.0334 30.7984 19.992 30.6014 19.9903 30.402C19.9886 30.2026 20.0266 30.0049 20.1021 29.8204C20.1776 29.6358 20.2891 29.4682 20.43 29.3272C20.571 29.1862 20.7387 29.0747 20.9232 28.9992C21.1078 28.9237 21.3055 28.8857 21.5049 28.8874C21.7043 28.8891 21.9013 28.9306 22.0845 29.0093C22.2677 29.088 22.4334 29.2024 22.5719 29.3458L27.1729 33.9467L37.4369 23.6817C37.5763 23.5422 37.7419 23.4315 37.9242 23.3559C38.1064 23.2804 38.3018 23.2415 38.499 23.2415C38.6963 23.2415 38.8917 23.2804 39.0739 23.3559C39.2562 23.4315 39.4217 23.5422 39.5612 23.6817Z" fill="white"/>
</g>
</svg>
