<svg width="19" height="12" viewBox="0 0 19 12" fill="none" xmlns="http://www.w3.org/2000/svg">
<path id="Vector" d="M18.4516 11.0556C18.5992 10.9092 18.7164 10.735 18.7964 10.5431C18.8763 10.3511 18.9175 10.1453 18.9175 9.93738C18.9175 9.72947 18.8763 9.52361 18.7964 9.33169C18.7164 9.13977 18.5992 8.96558 18.4516 8.81917L10.5769 0.9445C10.4305 0.796884 10.2563 0.679718 10.0644 0.599761C9.8725 0.519803 9.66665 0.478637 9.45874 0.478637C9.25083 0.478637 9.04498 0.519803 8.85306 0.599761C8.66114 0.679718 8.48695 0.796884 8.34054 0.9445L0.465864 8.81917C0.318248 8.96558 0.20108 9.13977 0.121122 9.33169C0.041164 9.52361 -4.04367e-07 9.72947 -4.13455e-07 9.93738C-4.22543e-07 10.1453 0.041164 10.3511 0.121122 10.5431C0.20108 10.735 0.318248 10.9092 0.465864 11.0556C0.612274 11.2032 0.786462 11.3204 0.978384 11.4003C1.1703 11.4803 1.37616 11.5214 1.58407 11.5214C1.79198 11.5214 1.99783 11.4803 2.18975 11.4003C2.38167 11.3204 2.55586 11.2032 2.70227 11.0556L9.45874 4.28336L12.837 7.66947L16.2152 11.0556C16.3616 11.2032 16.5358 11.3204 16.7277 11.4003C16.9197 11.4803 17.1255 11.5214 17.3334 11.5214C17.5413 11.5214 17.7472 11.4803 17.9391 11.4003C18.131 11.3204 18.3052 11.2032 18.4516 11.0556Z" fill="#00E074"/>
</svg>
